if (_typeface_js && _typeface_js.loadFace) _typeface_js.loadFace({"glyphs":{"S":{"x_min":90,"x_max":770.4375,"ha":861,"o":"m 745 293 l 745 186 q 687 44 745 102 q 545 -14 628 -14 l 289 -14 q 148 44 206 -14 q 90 186 90 102 l 90 392 l 159 392 l 159 186 q 197 93 159 131 q 289 55 235 55 l 545 55 q 637 93 599 55 q 676 186 676 131 l 676 293 q 656 380 676 340 q 596 454 637 421 q 523 508 555 487 q 437 557 492 528 q 364 596 383 586 q 314 626 353 603 q 255 660 274 649 q 205 696 237 672 q 157 740 173 721 q 128 787 141 760 q 115 843 115 815 l 115 919 q 173 1061 115 1003 q 314 1120 231 1120 l 570 1120 q 712 1061 653 1120 q 770 920 770 1003 l 701 920 q 662 1012 701 974 q 570 1050 624 1050 l 314 1050 q 222 1012 260 1050 q 184 919 184 974 l 184 843 q 217 772 184 807 q 286 715 249 736 q 383 662 323 693 q 464 618 442 632 q 512 590 471 614 q 567 556 552 567 q 618 521 582 546 q 669 476 653 496 q 707 426 685 455 q 737 364 728 397 q 745 293 745 330 "},"/":{"x_min":13.890625,"x_max":708.328125,"ha":722,"o":"m 97 -83 l 708 1195 l 625 1195 l 13 -83 l 97 -83 "},"K":{"x_min":125,"x_max":890.21875,"ha":932,"o":"m 193 579 l 193 0 l 125 0 l 125 1112 l 193 1112 l 193 647 l 554 647 l 815 1112 l 890 1112 l 616 619 l 616 606 l 890 0 l 815 0 l 554 579 l 193 579 "},"7":{"x_min":28,"x_max":639.109375,"ha":688,"o":"m 159 0 l 243 0 l 639 1069 l 28 1069 l 28 1000 l 537 1000 l 159 0 "},"d":{"x_min":104,"x_max":712.4375,"ha":824,"o":"m 643 615 l 643 156 q 237 55 310 55 q 192 73 212 55 q 173 119 173 91 l 173 608 q 207 689 173 655 q 288 724 241 724 l 527 724 q 608 692 574 724 q 643 615 643 660 m 712 0 l 712 1062 l 643 1062 l 643 753 q 527 793 594 793 l 288 793 q 158 739 212 793 q 104 608 104 685 l 104 119 q 142 24 104 63 q 237 -14 181 -14 q 372 11 270 -14 q 558 61 473 36 l 643 86 l 643 0 l 712 0 "},",":{"x_min":147,"x_max":216.4375,"ha":341,"o":"m 216 -217 l 216 215 l 147 215 l 147 -217 l 216 -217 "},"Y":{"x_min":41.5,"x_max":833.15625,"ha":875,"o":"m 573 398 l 763 1111 l 833 1111 l 637 358 q 615 324 631 338 q 577 311 598 311 l 473 311 l 473 0 l 404 0 l 404 311 l 299 311 q 262 324 279 311 q 240 358 245 337 l 41 1111 l 110 1111 l 304 398 q 317 380 306 380 l 559 380 q 573 398 569 380 "},"E":{"x_min":125,"x_max":726.390625,"ha":782,"o":"m 726 1042 l 194 1042 l 194 647 l 688 647 l 688 578 l 194 578 l 194 69 l 726 69 l 726 0 l 125 0 l 125 1111 l 726 1111 l 726 1042 "},"y":{"x_min":42,"x_max":687.828125,"ha":729,"o":"m 178 33 q 198 0 180 15 q 237 -14 217 -14 l 473 -14 l 436 -219 l 505 -219 l 687 774 l 618 774 l 486 55 l 255 55 q 246 59 250 55 q 242 69 243 63 l 242 73 l 111 775 l 42 775 l 178 33 "},"\"":{"x_min":118,"x_max":326.4375,"ha":444,"o":"m 187 1061 l 187 703 l 118 703 l 118 1061 l 187 1061 m 326 1061 l 326 703 l 257 703 l 257 1061 l 326 1061 "},"‹":{"x_min":69.4375,"x_max":394.4375,"ha":492,"o":"m 175 332 l 394 489 l 348 536 l 69 332 l 348 127 l 394 175 l 175 332 "},"„":{"x_min":69.875,"x_max":337,"ha":455,"o":"m 147 -219 l 188 -115 q 198 -62 198 -88 q 92 72 198 34 l 69 11 q 117 -17 104 -1 q 131 -61 131 -33 q 126 -91 131 -77 l 86 -197 l 147 -219 m 286 -219 l 327 -115 q 337 -62 337 -88 q 231 72 337 34 l 209 11 q 256 -17 243 -1 q 270 -61 270 -33 q 265 -91 270 -77 l 225 -197 l 286 -219 "},"g":{"x_min":97,"x_max":705.4375,"ha":803,"o":"m 166 196 l 166 608 q 199 689 166 655 q 281 724 233 724 l 520 724 q 602 689 569 724 q 636 608 636 655 l 636 247 q 230 132 303 132 q 185 150 205 132 q 166 196 166 168 m 637 168 l 637 -44 q 603 -125 637 -91 q 522 -159 569 -159 l 283 -159 q 202 -125 236 -159 q 168 -44 168 -91 l 168 -14 l 98 -14 l 98 -44 q 152 -175 98 -122 q 283 -229 205 -229 l 522 -229 q 652 -176 599 -229 q 705 -47 705 -123 l 705 608 q 651 739 705 685 q 520 793 597 793 l 281 793 q 151 739 205 793 q 97 608 97 685 l 97 196 q 135 101 97 140 q 230 63 174 63 q 365 89 263 63 q 552 142 466 115 l 637 168 "},"–":{"x_min":28,"x_max":636,"ha":664,"o":"m 28 454 l 636 454 l 636 522 l 28 522 l 28 454 "},"e":{"x_min":97,"x_max":705.4375,"ha":782,"o":"m 636 496 l 166 496 l 166 607 q 199 689 166 655 q 281 722 233 722 l 520 722 q 602 689 569 722 q 636 607 636 655 l 636 496 m 520 55 l 281 55 q 199 88 233 55 q 166 170 166 122 l 166 428 l 705 428 l 705 607 q 651 737 705 683 q 520 792 597 792 l 281 792 q 151 737 205 792 q 97 607 97 683 l 97 170 q 151 40 97 94 q 281 -14 205 -14 l 520 -14 q 651 40 597 -14 q 705 170 705 94 l 705 271 l 636 271 l 636 170 q 602 88 636 122 q 520 55 569 55 "},"J":{"x_min":69,"x_max":748,"ha":852,"o":"m 748 1111 l 678 1111 l 678 186 q 640 93 678 131 q 548 55 602 55 l 268 55 q 176 93 214 55 q 138 186 138 131 l 138 406 l 69 406 l 69 186 q 127 44 69 102 q 268 -14 185 -14 l 548 -14 q 689 44 631 -14 q 748 186 748 102 l 748 1111 "},"|":{"x_min":111,"x_max":180.4375,"ha":292,"o":"m 180 -69 l 180 1182 l 111 1182 l 111 -69 l 180 -69 "},"^":{"x_min":70.828125,"x_max":455.5625,"ha":514,"o":"m 276 1021 l 380 885 l 455 885 l 297 1090 l 229 1090 l 70 885 l 145 885 l 250 1021 l 276 1021 "},"q":{"x_min":97,"x_max":705.4375,"ha":810,"o":"m 166 121 l 166 609 q 199 690 166 656 q 281 724 233 724 l 520 724 q 602 690 569 724 q 636 609 636 656 l 636 158 q 230 57 303 57 q 185 75 205 57 q 166 121 166 93 m 705 -216 l 705 609 q 651 739 705 685 q 520 794 597 794 l 281 794 q 151 739 205 794 q 97 609 97 685 l 97 121 q 135 26 97 65 q 230 -12 174 -12 q 365 13 263 -12 q 551 63 466 38 l 636 88 l 636 -216 l 705 -216 "},"b":{"x_min":111,"x_max":719.4375,"ha":824,"o":"m 719 170 l 719 658 q 680 753 719 714 q 586 792 641 792 q 451 766 552 792 q 265 716 349 741 l 180 691 l 180 1063 l 111 1063 l 111 170 q 165 40 111 94 q 295 -14 219 -14 l 534 -14 q 665 40 611 -14 q 719 170 719 94 m 650 658 l 650 170 q 616 88 650 122 q 534 55 583 55 l 295 55 q 213 88 247 55 q 180 170 180 122 l 180 608 q 586 722 512 722 q 630 704 611 722 q 650 658 650 686 "},"D":{"x_min":125,"x_max":810,"ha":914,"o":"m 194 1042 l 609 1042 q 702 1007 664 1042 q 740 919 740 972 l 740 200 q 702 107 740 145 q 609 69 664 69 l 194 69 l 194 1042 m 125 1111 l 125 0 l 609 0 q 751 58 693 0 q 810 200 810 116 l 810 919 q 752 1056 810 1001 q 609 1111 694 1111 l 125 1111 "},"z":{"x_min":62,"x_max":665,"ha":728,"o":"m 665 68 l 665 0 l 62 0 l 62 69 l 577 714 l 65 714 l 65 783 l 661 783 l 661 714 l 144 68 l 665 68 "},"w":{"x_min":104,"x_max":1098.5625,"ha":1203,"o":"m 1029 778 l 1098 778 l 1098 186 q 1047 43 1098 101 q 913 -14 995 -14 l 779 -14 q 667 22 716 -14 q 601 122 619 59 q 534 22 583 59 q 423 -14 486 -14 l 288 -14 q 155 43 206 -14 q 104 186 104 101 l 104 778 l 173 778 l 173 186 q 204 92 173 130 q 288 55 235 55 l 423 55 q 528 116 490 55 q 566 255 566 177 l 566 778 l 636 778 l 636 255 q 674 116 636 177 q 779 55 712 55 l 913 55 q 997 92 966 55 q 1029 186 1029 130 l 1029 778 "},"$":{"x_min":83,"x_max":691.4375,"ha":775,"o":"m 351 0 l 420 0 l 420 139 l 506 139 q 637 193 583 139 q 691 323 691 247 l 691 370 q 655 444 691 406 q 564 509 619 481 q 476 551 509 537 q 420 574 444 566 l 420 875 l 506 875 q 588 842 555 875 q 622 759 622 808 l 622 732 l 691 732 l 691 759 q 637 890 691 836 q 506 945 583 945 l 420 945 l 420 1070 l 351 1070 l 351 945 l 267 945 q 137 890 191 945 q 83 759 83 836 l 83 732 q 119 657 83 694 q 211 593 156 620 q 297 551 266 565 q 351 531 328 538 l 351 208 l 267 208 q 185 241 219 208 q 152 323 152 275 l 152 447 l 83 447 l 83 323 q 137 193 83 247 q 267 139 191 139 l 351 139 l 351 0 m 506 208 l 420 208 l 420 505 q 622 370 622 420 l 622 323 q 588 241 622 275 q 506 208 555 208 m 152 732 l 152 760 q 185 842 152 808 q 267 875 219 875 l 351 875 l 351 601 q 152 732 152 682 "},"\\":{"x_min":27.78125,"x_max":595.828125,"ha":624,"o":"m 595 0 l 109 1112 l 27 1112 l 512 0 l 595 0 "},"’":{"x_min":69.875,"x_max":198,"ha":316,"o":"m 147 823 l 188 928 q 198 980 198 954 q 92 1115 198 1078 l 69 1054 q 117 1026 104 1042 q 131 982 131 1010 q 126 951 131 967 l 86 846 l 147 823 "},"~":{"x_min":61.109375,"x_max":422.21875,"ha":482,"o":"m 68 902 l 61 966 q 147 1009 97 1009 q 243 984 181 1009 q 337 960 305 960 q 415 999 379 960 l 422 935 q 337 891 384 891 q 240 915 302 891 q 147 939 179 939 q 68 902 102 939 "},"-":{"x_min":83,"x_max":597,"ha":680,"o":"m 83 454 l 597 454 l 597 522 l 83 522 l 83 454 "},"Q":{"x_min":104,"x_max":790,"ha":894,"o":"m 790 186 l 790 919 q 731 1061 790 1002 q 590 1119 673 1119 l 303 1119 q 162 1061 220 1119 q 104 919 104 1002 l 104 186 q 162 44 104 102 q 304 -14 220 -14 l 412 -14 l 412 -217 l 482 -217 l 482 -14 l 590 -14 q 731 44 673 -14 q 790 186 790 102 m 482 186 l 412 186 l 412 55 l 304 55 q 211 93 249 55 q 173 186 173 131 l 173 919 q 211 1011 173 973 q 303 1050 249 1050 l 590 1050 q 682 1011 644 1050 q 720 919 720 973 l 720 186 q 682 93 720 131 q 590 55 644 55 l 482 55 l 482 186 "},"M":{"x_min":132,"x_max":929,"ha":1061,"o":"m 751 1111 l 929 1111 l 929 0 l 859 0 l 859 1042 l 805 1042 l 565 14 l 495 14 l 256 1042 l 201 1042 l 201 0 l 132 0 l 132 1111 l 312 1111 l 530 152 l 751 1111 "},"C":{"x_min":104,"x_max":789,"ha":886,"o":"m 719 406 l 717 406 l 717 186 q 680 93 717 131 q 589 55 643 55 l 304 55 q 211 93 249 55 q 173 186 173 131 l 173 919 q 211 1012 173 974 q 304 1050 249 1050 l 588 1050 q 681 1012 643 1050 q 719 919 719 974 l 719 745 l 789 745 l 789 920 q 730 1061 789 1003 q 588 1120 672 1120 l 304 1120 q 162 1061 220 1120 q 104 919 104 1003 l 104 186 q 162 44 104 102 q 304 -14 220 -14 l 588 -14 q 730 44 672 -14 q 789 186 789 102 l 789 406 l 719 406 "},"[":{"x_min":111,"x_max":417.9375,"ha":446,"o":"m 111 1209 l 417 1209 l 417 1139 l 180 1139 l 180 -27 l 417 -27 l 417 -97 l 111 -97 l 111 1209 "},"L":{"x_min":125,"x_max":724.9375,"ha":753,"o":"m 193 1111 l 193 69 l 724 69 l 724 0 l 125 0 l 125 1111 l 193 1111 "},"!":{"x_min":181,"x_max":250.4375,"ha":434,"o":"m 250 0 l 250 147 l 181 147 l 181 0 l 250 0 m 250 286 l 250 1106 l 181 1106 l 181 286 l 250 286 "},"―":{"x_min":28,"x_max":1417,"ha":1446,"o":"m 28 454 l 1417 454 l 1417 522 l 28 522 l 28 454 "}," ":{"x_min":0,"x_max":0,"ha":347},"{":{"x_min":56,"x_max":290.953125,"ha":374,"o":"m 290 1125 l 290 1195 q 164 1010 164 1181 l 164 749 q 142 631 164 653 q 56 609 119 609 l 56 503 q 142 480 119 503 q 164 362 164 458 l 164 101 q 290 -83 164 -69 l 290 -13 q 234 101 234 0 l 234 362 q 209 504 234 465 q 125 543 184 543 l 125 568 q 208 608 182 568 q 234 749 234 649 l 234 1010 q 290 1125 234 1111 "},"X":{"x_min":55.5625,"x_max":806.953125,"ha":863,"o":"m 730 0 l 430 551 l 131 0 l 55 0 l 393 629 l 127 1113 l 204 1113 l 430 707 l 658 1113 l 734 1113 l 469 629 l 806 0 l 730 0 "},"P":{"x_min":125,"x_max":804,"ha":873,"o":"m 194 1042 l 604 1042 q 696 1007 658 1042 q 734 919 734 972 l 734 675 q 696 582 734 620 q 604 544 658 544 l 194 544 l 194 1042 m 125 1111 l 125 0 l 194 0 l 194 475 l 604 475 q 745 533 687 475 q 804 675 804 591 l 804 919 q 746 1056 804 1001 q 604 1111 688 1111 l 125 1111 "},"%":{"x_min":111,"x_max":1298.4375,"ha":1410,"o":"m 577 689 l 577 896 q 551 978 577 944 q 490 1011 526 1011 l 267 1011 q 206 978 231 1011 q 180 896 180 944 l 180 689 q 206 607 180 640 q 267 574 231 574 l 490 574 q 551 607 526 574 q 577 689 577 640 m 647 896 l 647 689 q 601 558 647 612 q 490 504 555 504 l 267 504 q 156 558 202 504 q 111 689 111 612 l 111 896 q 156 1027 111 974 q 267 1081 202 1081 l 490 1081 q 601 1027 555 1081 q 647 896 647 974 m 1229 170 l 1229 377 q 1203 459 1229 426 q 1141 493 1177 493 l 919 493 q 857 459 883 493 q 832 377 832 426 l 832 170 q 857 88 832 122 q 919 55 883 55 l 1141 55 q 1203 88 1177 55 q 1229 170 1229 122 m 1298 377 l 1298 170 q 1252 40 1298 94 q 1141 -14 1206 -14 l 919 -14 q 808 40 854 -14 q 762 170 762 94 l 762 377 q 808 508 762 455 q 919 562 854 562 l 1141 562 q 1252 508 1206 562 q 1298 377 1298 455 m 465 0 l 1023 1109 l 940 1109 l 381 0 l 465 0 "},"#":{"x_min":118,"x_max":986,"ha":1078,"o":"m 986 635 l 794 635 l 735 450 l 937 450 l 937 382 l 715 382 l 638 138 l 569 138 l 645 382 l 388 382 l 312 138 l 243 138 l 319 382 l 118 382 l 118 450 l 341 450 l 400 635 l 167 635 l 167 703 l 420 703 l 493 930 l 562 930 l 490 703 l 746 703 l 819 930 l 888 930 l 816 703 l 986 703 l 986 635 m 468 635 l 409 450 l 667 450 l 726 635 l 468 635 "},"_":{"x_min":28,"x_max":722,"ha":750,"o":"m 28 -101 l 722 -101 l 722 -33 l 28 -33 l 28 -101 "},"+":{"x_min":83,"x_max":569,"ha":652,"o":"m 83 454 l 291 454 l 291 229 l 359 229 l 359 454 l 569 454 l 569 522 l 359 522 l 359 715 l 291 715 l 291 522 l 83 522 l 83 454 "},"‚":{"x_min":69.875,"x_max":198,"ha":316,"o":"m 147 -219 l 188 -115 q 198 -62 198 -88 q 92 72 198 34 l 69 11 q 117 -17 104 -1 q 131 -61 131 -33 q 126 -91 131 -77 l 86 -197 l 147 -219 "},")":{"x_min":83.65625,"x_max":382,"ha":465,"o":"m 164 1170 l 83 1170 q 317 528 317 879 q 83 -114 317 177 l 164 -114 q 382 528 382 163 q 164 1170 382 894 "},"'":{"x_min":118,"x_max":187.4375,"ha":306,"o":"m 187 1061 l 187 703 l 118 703 l 118 1061 l 187 1061 "},"}":{"x_min":83.046875,"x_max":318,"ha":374,"o":"m 83 1125 l 83 1195 q 209 1010 209 1181 l 209 749 q 215 670 209 699 q 237 627 220 640 q 269 611 254 614 q 318 609 284 609 l 318 503 q 269 500 284 503 q 237 484 254 497 q 215 441 220 471 q 209 362 209 412 l 209 101 q 83 -83 209 -69 l 83 -13 q 140 101 140 0 l 140 362 q 165 504 140 465 q 248 543 190 543 l 248 568 q 165 608 191 568 q 140 749 140 649 l 140 1010 q 83 1125 140 1111 "},"‰":{"x_min":111,"x_max":1894.4375,"ha":2006,"o":"m 577 689 l 577 896 q 551 978 577 944 q 490 1011 526 1011 l 267 1011 q 206 978 231 1011 q 180 896 180 944 l 180 689 q 206 607 180 640 q 267 574 231 574 l 490 574 q 551 607 526 574 q 577 689 577 640 m 647 896 l 647 689 q 601 558 647 612 q 490 504 555 504 l 267 504 q 156 558 202 504 q 111 689 111 612 l 111 896 q 156 1027 111 974 q 267 1081 202 1081 l 490 1081 q 601 1027 555 1081 q 647 896 647 974 m 1229 170 l 1229 377 q 1203 459 1229 426 q 1141 493 1177 493 l 919 493 q 857 459 883 493 q 832 377 832 426 l 832 170 q 857 88 832 122 q 919 55 883 55 l 1141 55 q 1203 88 1177 55 q 1229 170 1229 122 m 1298 377 l 1298 170 q 1252 40 1298 94 q 1141 -14 1206 -14 l 919 -14 q 808 40 854 -14 q 762 170 762 94 l 762 377 q 808 508 762 455 q 919 562 854 562 l 1141 562 q 1252 508 1206 562 q 1298 377 1298 455 m 465 0 l 1023 1109 l 940 1109 l 381 0 l 465 0 m 1825 170 l 1825 377 q 1799 459 1825 426 q 1737 493 1773 493 l 1515 493 q 1453 459 1478 493 q 1427 377 1427 426 l 1427 170 q 1453 88 1427 122 q 1515 55 1478 55 l 1737 55 q 1799 88 1773 55 q 1825 170 1825 122 m 1894 377 l 1894 170 q 1848 40 1894 94 q 1737 -14 1802 -14 l 1515 -14 q 1403 40 1449 -14 q 1358 170 1358 94 l 1358 377 q 1403 508 1358 455 q 1515 562 1449 562 l 1737 562 q 1848 508 1802 562 q 1894 377 1894 455 "},"a":{"x_min":69,"x_max":677.4375,"ha":782,"o":"m 138 215 l 138 119 q 158 75 138 95 q 202 55 178 55 q 337 80 235 55 q 523 130 438 105 l 608 156 l 608 422 l 235 354 q 164 305 189 345 q 138 215 138 265 m 608 491 l 608 607 q 574 689 608 655 q 492 722 541 722 l 285 722 q 204 689 238 722 q 170 606 170 655 l 170 572 l 101 572 l 101 606 q 154 737 101 683 q 285 792 207 792 l 492 792 q 623 737 569 792 q 677 607 677 683 l 677 0 l 608 0 l 608 86 q 202 -14 276 -14 q 107 24 146 -14 q 69 119 69 63 l 69 215 q 108 347 69 288 q 206 416 148 406 l 608 491 "},"T":{"x_min":28,"x_max":745,"ha":773,"o":"m 745 1042 l 421 1042 l 421 0 l 351 0 l 351 1042 l 28 1042 l 28 1111 l 745 1111 l 745 1042 "},"—":{"x_min":28,"x_max":1022,"ha":1050,"o":"m 28 454 l 1022 454 l 1022 522 l 28 522 l 28 454 "},"=":{"x_min":83,"x_max":569,"ha":652,"o":"m 83 578 l 569 578 l 569 648 l 83 648 l 83 578 m 83 327 l 569 327 l 569 396 l 83 396 l 83 327 "},"N":{"x_min":125,"x_max":757,"ha":882,"o":"m 600 0 l 757 0 l 757 1111 l 687 1111 l 687 69 l 652 69 l 284 1111 l 125 1111 l 125 0 l 194 0 l 194 1042 l 229 1042 l 600 0 "},"⁄":{"x_min":27.78125,"x_max":655.5625,"ha":683,"o":"m 111 0 l 655 1109 l 572 1109 l 27 0 l 111 0 "},"2":{"x_min":69,"x_max":699.4375,"ha":748,"o":"m 699 69 l 699 0 l 69 0 l 69 69 q 85 183 69 133 q 145 282 102 233 q 223 359 188 330 q 335 447 259 389 q 398 493 349 457 q 467 546 446 529 q 526 600 488 564 q 582 666 564 637 q 614 736 599 694 q 630 821 630 777 l 630 877 q 591 970 630 932 q 499 1008 553 1008 l 268 1008 q 176 970 214 1008 q 138 878 138 932 l 69 878 q 127 1019 69 961 q 268 1078 185 1078 l 499 1078 q 641 1019 582 1078 q 699 877 699 961 l 699 821 q 389 402 699 609 q 341 366 377 393 q 292 328 305 338 q 252 294 280 318 q 212 257 224 270 q 182 218 200 243 q 157 173 164 194 q 144 125 150 152 q 138 69 138 98 l 699 69 "},"j":{"x_min":28,"x_max":191,"ha":309,"o":"m 120 778 l 120 -81 q 87 -124 120 -103 q 28 -145 54 -145 l 28 -215 q 137 -174 86 -215 q 189 -81 189 -134 l 189 778 l 120 778 m 191 916 l 191 1063 l 121 1063 l 121 916 l 191 916 "},"Z":{"x_min":49,"x_max":716,"ha":765,"o":"m 49 0 l 716 0 l 716 69 l 160 69 l 716 1111 l 49 1111 l 49 1042 l 606 1042 l 49 0 "},"u":{"x_min":104,"x_max":712.4375,"ha":824,"o":"m 712 778 l 643 778 l 643 155 q 237 55 310 55 q 192 73 212 55 q 173 119 173 91 l 173 778 l 104 778 l 104 119 q 142 24 104 63 q 237 -14 181 -14 q 372 11 270 -14 q 558 61 473 36 l 643 86 l 643 0 l 712 0 l 712 778 "},"1":{"x_min":117.84375,"x_max":241.4375,"ha":359,"o":"m 241 0 l 241 1063 l 117 1063 l 117 993 l 172 993 l 172 0 l 241 0 "},"›":{"x_min":97.21875,"x_max":422.21875,"ha":492,"o":"m 316 332 l 97 489 l 143 536 l 422 332 l 143 127 l 97 175 l 316 332 "},"k":{"x_min":111,"x_max":758.15625,"ha":758,"o":"m 179 385 l 179 0 l 111 0 l 111 1063 l 179 1063 l 179 453 l 422 453 l 613 778 l 688 778 l 484 425 l 484 412 l 758 0 l 683 0 l 422 385 l 179 385 "},"€":{"x_min":76,"x_max":788.4375,"ha":885,"o":"m 716 406 l 716 186 q 679 93 716 131 q 588 55 642 55 l 352 55 q 260 93 298 55 q 222 186 222 131 l 222 458 l 577 458 l 577 528 l 222 528 l 222 578 l 577 578 l 577 647 l 222 647 l 222 878 q 260 970 222 932 q 352 1008 298 1008 l 588 1008 q 680 970 642 1008 q 719 877 719 932 l 719 703 l 788 703 l 788 878 q 730 1019 788 961 q 588 1078 671 1078 l 352 1078 q 210 1019 269 1078 q 152 877 152 961 l 152 647 l 76 647 l 76 578 l 152 578 l 152 528 l 76 528 l 76 458 l 152 458 l 152 186 q 210 44 152 102 q 352 -14 269 -14 l 588 -14 q 729 44 671 -14 q 788 186 788 102 l 788 406 l 716 406 "},"<":{"x_min":69.4375,"x_max":531.9375,"ha":629,"o":"m 69 576 l 475 912 l 520 868 l 176 576 l 531 273 l 487 227 l 69 576 "},"t":{"x_min":28,"x_max":463,"ha":491,"o":"m 28 710 l 192 710 l 192 119 q 243 26 192 66 q 353 -14 294 -14 l 353 55 q 292 77 323 55 q 261 119 261 98 l 261 710 l 463 710 l 463 778 l 261 778 l 261 979 l 192 979 l 192 778 l 28 778 l 28 710 "},"W":{"x_min":111,"x_max":1199.5625,"ha":1311,"o":"m 1130 1111 l 1199 1111 l 1199 186 q 1141 44 1199 102 q 999 -14 1082 -14 l 848 -14 q 726 26 778 -14 q 655 131 673 67 q 584 26 637 67 q 462 -14 531 -14 l 310 -14 q 169 44 227 -14 q 111 186 111 102 l 111 1111 l 180 1111 l 180 186 q 218 93 180 131 q 310 55 256 55 l 462 55 q 573 124 526 55 q 620 255 620 192 l 620 1111 l 690 1111 l 690 255 q 737 124 690 192 q 848 55 784 55 l 999 55 q 1091 93 1053 55 q 1130 186 1130 131 l 1130 1111 "},"v":{"x_min":48.609375,"x_max":694.453125,"ha":743,"o":"m 495 87 l 625 789 l 694 789 l 559 47 q 538 14 556 29 q 500 0 520 0 l 244 0 q 205 14 223 0 q 184 47 187 29 l 48 789 l 118 789 l 248 87 q 262 69 251 69 l 481 69 q 495 87 491 69 "},">":{"x_min":97.21875,"x_max":559.71875,"ha":629,"o":"m 559 576 l 154 912 l 108 868 l 452 576 l 97 273 l 141 227 l 559 576 "},"s":{"x_min":83,"x_max":691.4375,"ha":775,"o":"m 152 579 l 152 607 q 185 689 152 655 q 267 722 219 722 l 506 722 q 588 689 555 722 q 622 606 622 655 l 622 579 l 691 579 l 691 606 q 637 737 691 683 q 506 792 583 792 l 267 792 q 137 737 191 792 q 83 606 83 683 l 83 579 q 110 515 83 548 q 178 460 138 483 q 258 417 219 437 q 326 388 298 398 l 353 378 q 383 367 364 374 q 446 340 401 360 q 528 301 492 320 q 592 259 563 283 q 622 217 622 235 l 622 170 q 588 88 622 122 q 506 55 555 55 l 267 55 q 185 88 219 55 q 152 170 152 122 l 152 294 l 83 294 l 83 170 q 137 40 83 94 q 267 -14 191 -14 l 506 -14 q 637 40 583 -14 q 691 170 691 94 l 691 217 q 662 280 691 248 q 594 337 634 313 q 513 382 553 362 q 444 413 473 402 l 416 423 q 387 433 405 427 q 324 459 370 439 q 244 497 278 478 q 180 538 209 515 q 152 579 152 561 "},"B":{"x_min":125,"x_max":810,"ha":907,"o":"m 740 166 l 740 414 q 624 546 740 494 l 194 546 l 194 69 l 641 69 q 712 97 683 69 q 740 166 740 126 m 194 615 l 626 615 q 729 742 729 661 l 729 945 q 701 1014 729 984 q 633 1044 673 1044 l 194 1044 l 194 615 m 125 1112 l 633 1112 q 751 1063 702 1112 q 800 945 800 1014 l 800 744 q 770 646 800 691 q 692 580 740 601 q 777 516 744 561 q 810 414 810 470 l 810 166 q 760 48 810 97 q 643 0 711 0 l 125 0 l 125 1112 "},"…":{"x_min":139,"x_max":637,"ha":776,"o":"m 208 11 q 179 0 195 0 q 150 11 162 0 q 139 40 139 23 q 150 69 139 56 q 179 82 162 82 q 208 69 195 82 q 221 40 221 56 q 208 11 221 23 m 416 11 q 387 0 403 0 q 358 11 370 0 q 347 40 347 23 q 358 69 347 56 q 387 82 370 82 q 416 69 403 82 q 429 40 429 56 q 416 11 429 23 m 624 11 q 595 0 611 0 q 566 11 578 0 q 555 40 555 23 q 566 69 555 56 q 595 82 578 82 q 624 69 611 82 q 637 40 637 56 q 624 11 637 23 "},"?":{"x_min":83,"x_max":719,"ha":802,"o":"m 390 271 l 320 271 l 320 526 q 339 604 320 572 q 380 652 358 637 q 446 676 403 668 q 514 685 488 685 q 585 685 539 685 q 633 715 617 685 q 649 777 649 746 l 649 934 q 616 1017 649 983 q 534 1050 582 1050 l 267 1050 q 185 1017 219 1050 q 152 935 152 983 l 152 791 l 83 791 l 83 935 q 137 1065 83 1011 q 267 1120 191 1120 l 534 1120 q 664 1065 610 1120 q 719 935 719 1011 l 719 778 q 685 666 719 715 q 585 617 652 617 q 526 614 549 617 q 465 605 502 612 q 409 578 428 598 q 390 525 390 557 l 390 271 m 390 0 l 390 147 l 321 147 l 321 0 l 390 0 "},"H":{"x_min":125,"x_max":805.4375,"ha":930,"o":"m 805 1112 l 736 1112 l 736 647 l 194 647 l 194 1112 l 125 1112 l 125 0 l 194 0 l 194 579 l 736 579 l 736 0 l 805 0 l 805 1112 "},"c":{"x_min":97,"x_max":705.4375,"ha":768,"o":"m 636 271 l 636 170 q 602 88 636 122 q 520 55 569 55 l 281 55 q 199 88 233 55 q 166 170 166 122 l 166 607 q 199 689 166 655 q 281 722 233 722 l 520 722 q 602 689 569 722 q 636 607 636 655 l 636 503 l 705 503 l 705 607 q 651 737 705 683 q 520 792 597 792 l 281 792 q 151 737 205 792 q 97 607 97 683 l 97 170 q 151 40 97 94 q 281 -14 205 -14 l 520 -14 q 651 40 597 -14 q 705 170 705 94 l 705 271 l 636 271 "},"&":{"x_min":97,"x_max":928.828125,"ha":1026,"o":"m 525 498 l 525 568 l 283 568 q 213 615 251 568 q 176 697 176 662 l 176 897 q 294 996 176 996 l 573 996 q 655 973 628 996 q 683 897 683 950 l 683 788 l 752 788 l 752 897 q 705 1022 752 979 q 573 1065 657 1065 l 294 1065 q 157 1022 207 1065 q 106 897 106 979 l 106 697 q 136 599 106 644 q 213 533 166 554 q 129 468 162 515 q 97 366 97 420 l 97 159 q 151 36 97 79 q 292 -7 205 -7 l 573 -7 q 705 35 658 -7 q 752 159 752 77 l 752 497 l 928 497 l 928 567 l 752 567 l 752 617 l 683 617 l 683 159 q 655 84 683 106 q 573 62 628 62 l 294 62 q 166 159 166 62 l 166 366 q 208 449 166 401 q 283 498 251 498 l 525 498 "},"I":{"x_min":132,"x_max":201.4375,"ha":333,"o":"m 201 0 l 201 1112 l 132 1112 l 132 0 l 201 0 "},"•":{"x_min":118,"x_max":276,"ha":380,"o":"m 252 429 q 276 374 276 405 q 252 318 276 342 q 197 295 228 295 q 141 318 165 295 q 118 374 118 342 q 141 429 118 405 q 197 453 165 453 q 252 429 228 453 "},"G":{"x_min":104,"x_max":789,"ha":886,"o":"m 588 55 q 681 93 643 55 q 719 186 719 131 l 719 475 l 425 475 l 425 544 l 789 544 l 789 186 q 730 44 789 102 q 588 -14 672 -14 l 304 -14 q 162 44 220 -14 q 104 186 104 102 l 104 919 q 162 1061 104 1003 q 304 1120 220 1120 l 588 1120 q 730 1061 672 1120 q 789 920 789 1003 l 789 745 l 719 745 l 719 919 q 681 1012 719 974 q 588 1050 643 1050 l 304 1050 q 211 1012 249 1050 q 173 919 173 974 l 173 186 q 211 93 173 131 q 304 55 249 55 l 588 55 "},"(":{"x_min":83,"x_max":381.328125,"ha":465,"o":"m 300 1170 l 381 1170 q 148 528 148 879 q 381 -114 148 177 l 300 -114 q 83 528 83 163 q 300 1170 83 894 "},"`":{"x_min":69.4375,"x_max":288.890625,"ha":471,"o":"m 209 881 l 69 1063 l 148 1063 l 288 881 l 209 881 "},"U":{"x_min":111,"x_max":796,"ha":907,"o":"m 726 1111 l 726 186 q 688 93 726 131 q 595 55 650 55 l 311 55 q 218 93 256 55 q 180 186 180 131 l 180 1111 l 111 1111 l 111 186 q 169 44 111 102 q 311 -14 227 -14 l 595 -14 q 737 44 679 -14 q 796 186 796 102 l 796 1111 l 726 1111 "},"◊":{"x_min":35,"x_max":249,"ha":284,"o":"m 35 1045 l 35 1113 l 249 1113 l 249 1045 l 176 1045 l 176 68 l 249 68 l 249 0 l 35 0 l 35 68 l 107 68 l 107 1045 l 35 1045 "},"F":{"x_min":125,"x_max":727.78125,"ha":769,"o":"m 727 1111 l 125 1111 l 125 0 l 194 0 l 194 578 l 688 578 l 688 647 l 194 647 l 194 1042 l 727 1042 l 727 1111 "},"r":{"x_min":111,"x_max":719.4375,"ha":768,"o":"m 111 0 l 180 0 l 180 608 q 586 722 512 722 q 630 704 611 722 q 650 658 650 686 l 650 518 l 719 518 l 719 658 q 680 753 719 714 q 586 792 641 792 q 451 763 552 792 q 265 705 349 735 l 180 678 l 180 778 l 111 778 l 111 0 "},":":{"x_min":97,"x_max":179,"ha":276,"o":"m 166 614 q 137 603 153 603 q 108 614 120 603 q 97 643 97 626 q 108 672 97 659 q 137 685 120 685 q 166 672 153 685 q 179 643 179 659 q 166 614 179 626 m 166 11 q 137 0 153 0 q 108 11 120 0 q 97 40 97 23 q 108 69 97 56 q 137 82 120 82 q 166 69 153 82 q 179 40 179 56 q 166 11 179 23 "},"x":{"x_min":41.671875,"x_max":741.671875,"ha":783,"o":"m 687 778 l 433 426 l 741 0 l 658 0 l 391 368 l 125 0 l 41 0 l 350 426 l 95 778 l 179 778 l 391 483 l 604 778 l 687 778 "},"*":{"x_min":111.28125,"x_max":550.15625,"ha":661,"o":"m 365 1077 l 296 1077 l 296 890 l 111 935 l 111 869 l 282 822 l 133 675 l 183 632 l 330 779 l 477 632 l 527 675 l 379 822 l 550 869 l 550 935 l 365 890 l 365 1077 "},"†":{"x_min":14,"x_max":500,"ha":496,"o":"m 14 843 l 222 843 l 222 7 l 290 7 l 290 843 l 500 843 l 500 911 l 290 911 l 290 1105 l 222 1105 l 222 911 l 14 911 l 14 843 "},"V":{"x_min":41.671875,"x_max":859.71875,"ha":901,"o":"m 600 73 l 790 1111 l 859 1111 l 663 33 q 643 0 661 15 q 604 -14 625 -14 l 300 -14 q 261 0 279 -14 q 240 33 243 15 l 41 1111 l 111 1111 l 304 73 q 318 55 306 55 l 586 55 q 600 73 595 55 "},"h":{"x_min":111,"x_max":719.4375,"ha":824,"o":"m 111 0 l 180 0 l 180 622 q 586 722 512 722 q 630 704 611 722 q 650 658 650 686 l 650 0 l 719 0 l 719 658 q 680 753 719 714 q 586 792 641 792 q 451 766 552 792 q 265 716 349 741 l 180 691 l 180 1063 l 111 1063 l 111 0 "},"0":{"x_min":104,"x_max":712.4375,"ha":817,"o":"m 643 891 l 643 170 q 608 88 643 122 q 527 55 574 55 l 288 55 q 207 88 241 55 q 173 170 173 122 l 173 891 q 207 972 173 938 q 288 1007 241 1007 l 527 1007 q 608 972 574 1007 q 643 891 643 938 m 712 170 l 712 891 q 658 1022 712 969 q 527 1076 605 1076 l 288 1076 q 157 1022 210 1076 q 104 891 104 969 l 104 170 q 158 40 104 94 q 288 -14 212 -14 l 527 -14 q 658 40 604 -14 q 712 170 712 94 "},".":{"x_min":97,"x_max":179,"ha":276,"o":"m 166 11 q 137 0 153 0 q 108 11 120 0 q 97 40 97 23 q 108 69 97 56 q 137 82 120 82 q 166 69 153 82 q 179 40 179 56 q 166 11 179 23 "},"”":{"x_min":69.875,"x_max":337,"ha":455,"o":"m 147 823 l 188 928 q 198 980 198 954 q 92 1115 198 1078 l 69 1054 q 117 1026 104 1042 q 131 982 131 1010 q 126 951 131 967 l 86 846 l 147 823 m 286 823 l 327 928 q 337 980 337 954 q 231 1115 337 1078 l 209 1054 q 256 1026 243 1042 q 270 982 270 1010 q 265 951 270 967 l 225 846 l 286 823 "},"@":{"x_min":83,"x_max":1109.4375,"ha":1193,"o":"m 356 227 l 356 521 q 390 603 356 569 q 471 636 424 636 l 710 636 q 793 606 760 636 q 826 521 826 576 l 826 266 q 420 164 493 164 q 401 165 409 164 q 382 171 393 166 q 363 191 370 176 q 356 227 356 205 m 287 521 l 287 227 q 325 133 287 172 q 420 94 364 94 q 555 119 453 94 q 741 169 656 144 l 826 194 l 826 115 l 944 115 q 1060 162 1012 115 q 1109 279 1109 210 l 1109 575 q 1019 791 1109 701 q 803 881 930 881 l 388 881 q 171 792 260 881 q 83 575 83 703 l 83 216 q 172 0 83 90 q 388 -89 262 -89 l 746 -89 l 746 -19 l 388 -19 q 223 51 293 -19 q 152 216 152 122 l 152 575 q 223 740 152 669 q 388 811 294 811 l 803 811 q 968 740 896 811 q 1040 575 1040 669 l 1040 279 q 1019 218 1040 241 q 979 190 999 195 q 938 184 959 184 l 895 184 l 895 521 q 841 651 895 597 q 710 706 787 706 l 471 706 q 341 651 395 706 q 287 521 287 597 "},"f":{"x_min":35,"x_max":470,"ha":498,"o":"m 470 1063 l 470 993 l 360 993 q 301 972 333 993 q 268 929 268 951 l 268 778 l 470 778 l 470 710 l 268 710 l 268 -81 q 216 -174 268 -134 q 107 -215 165 -215 l 107 -145 q 166 -124 133 -145 q 199 -81 199 -103 l 199 710 l 35 710 l 35 778 l 199 778 l 199 929 q 250 1022 199 982 q 360 1063 301 1063 l 470 1063 "},";":{"x_min":139,"x_max":221,"ha":338,"o":"m 208 614 q 179 603 195 603 q 150 614 162 603 q 139 643 139 626 q 150 672 139 659 q 179 685 162 685 q 208 672 195 685 q 221 643 221 659 q 208 614 221 626 m 213 -217 l 213 215 l 143 215 l 143 -217 l 213 -217 "},"“":{"x_min":118,"x_max":385.109375,"ha":455,"o":"m 307 1110 l 266 1005 q 257 953 257 979 q 362 818 257 855 l 385 879 q 337 908 350 892 q 324 951 324 924 q 328 982 324 967 l 368 1087 l 307 1110 m 168 1110 l 127 1005 q 118 953 118 979 q 223 818 118 855 l 245 879 q 198 908 211 892 q 185 951 185 924 q 189 982 185 967 l 229 1087 l 168 1110 "},"i":{"x_min":118,"x_max":279,"ha":328,"o":"m 118 778 l 118 119 q 169 26 118 67 q 279 -13 220 -13 l 279 56 q 218 77 249 56 q 187 119 187 99 l 187 778 l 118 778 m 187 916 l 187 1063 l 118 1063 l 118 916 l 187 916 "},"6":{"x_min":104,"x_max":712.4375,"ha":810,"o":"m 173 172 l 173 420 q 206 500 173 467 q 288 534 240 534 l 527 534 q 608 500 574 534 q 643 418 643 467 l 643 172 q 608 91 643 125 q 527 57 574 57 l 288 57 q 207 91 241 57 q 173 172 173 125 m 640 911 l 640 788 l 709 788 l 709 911 q 660 1036 709 993 q 524 1078 610 1078 l 285 1078 q 152 1036 201 1078 q 104 911 104 993 l 104 172 q 158 42 104 96 q 288 -12 212 -12 l 527 -12 q 658 42 604 -12 q 712 172 712 96 l 712 418 q 658 549 712 495 q 527 603 604 603 l 288 603 q 229 593 258 603 q 187 572 201 582 l 173 561 l 173 911 q 201 986 173 964 q 285 1009 228 1009 l 524 1009 q 640 911 640 1009 "},"A":{"x_min":41.671875,"x_max":855.5625,"ha":897,"o":"m 855 0 l 786 0 l 730 297 l 165 297 l 111 0 l 41 0 l 234 1072 q 255 1104 237 1090 q 294 1119 273 1119 l 598 1119 q 637 1104 619 1119 q 658 1072 655 1090 l 855 0 m 298 1031 l 177 366 l 718 366 l 594 1031 q 580 1050 591 1050 l 312 1050 q 298 1031 302 1050 "},"‘":{"x_min":118,"x_max":246.109375,"ha":316,"o":"m 168 1110 l 127 1005 q 118 953 118 979 q 223 818 118 855 l 246 879 q 198 908 211 892 q 185 951 185 924 q 189 982 185 967 l 229 1087 l 168 1110 "},"n":{"x_min":111,"x_max":719.4375,"ha":824,"o":"m 111 0 l 180 0 l 180 622 q 586 722 512 722 q 630 704 611 722 q 650 658 650 686 l 650 0 l 719 0 l 719 658 q 680 753 719 714 q 586 792 641 792 q 451 766 552 792 q 265 716 349 741 l 180 691 l 180 778 l 111 778 l 111 0 "},"O":{"x_min":104,"x_max":789,"ha":893,"o":"m 719 919 l 719 186 q 681 93 719 131 q 588 55 643 55 l 304 55 q 211 93 249 55 q 173 186 173 131 l 173 919 q 211 1012 173 974 q 304 1050 249 1050 l 588 1050 q 681 1012 643 1050 q 719 919 719 974 m 789 186 l 789 919 q 730 1061 789 1003 q 588 1120 672 1120 l 304 1120 q 162 1061 220 1120 q 104 919 104 1003 l 104 186 q 162 44 104 102 q 304 -14 220 -14 l 588 -14 q 730 44 672 -14 q 789 186 789 102 "},"3":{"x_min":86,"x_max":702.4375,"ha":807,"o":"m 623 907 l 623 746 q 586 664 623 711 q 516 617 548 617 l 351 617 l 351 547 l 516 547 q 590 498 548 547 q 633 415 633 450 l 633 159 q 505 62 633 62 l 274 62 q 192 84 219 62 q 165 159 165 106 l 165 392 l 95 392 l 95 159 q 142 35 95 77 q 274 -7 190 -7 l 506 -7 q 648 36 594 -7 q 702 159 702 79 l 702 415 q 669 516 702 469 q 586 582 637 564 q 663 648 633 603 q 693 746 693 693 l 693 907 q 638 1030 693 987 q 497 1074 584 1074 l 265 1074 q 133 1031 180 1074 q 86 906 86 989 l 86 879 l 155 879 l 155 906 q 182 982 155 959 q 265 1004 209 1004 l 495 1004 q 623 907 623 1004 "},"]":{"x_min":27.5,"x_max":334.4375,"ha":446,"o":"m 334 1209 l 27 1209 l 27 1139 l 265 1139 l 265 -27 l 27 -27 l 27 -97 l 334 -97 l 334 1209 "},"m":{"x_min":111,"x_max":1105.4375,"ha":1210,"o":"m 573 0 l 643 0 l 643 622 q 972 722 898 722 q 1016 704 997 722 q 1036 658 1036 686 l 1036 0 l 1105 0 l 1105 658 q 1066 753 1105 714 q 972 792 1027 792 q 856 766 938 792 q 708 716 774 741 l 643 692 l 638 692 q 591 763 627 735 q 509 792 555 792 q 394 766 476 792 q 247 716 312 741 l 180 692 l 180 778 l 111 778 l 111 0 l 180 0 l 180 622 q 509 722 436 722 q 554 704 534 722 q 573 658 573 686 l 573 0 "},"9":{"x_min":97,"x_max":705.4375,"ha":810,"o":"m 636 894 l 636 647 q 602 566 636 600 q 520 533 569 533 l 281 533 q 199 566 233 533 q 166 648 166 600 l 166 894 q 199 975 166 941 q 281 1010 233 1010 l 520 1010 q 602 975 569 1010 q 636 894 636 941 m 169 155 l 169 279 l 99 279 l 99 155 q 148 31 99 73 q 284 -11 198 -11 l 523 -11 q 656 31 608 -11 q 705 155 705 73 l 705 894 q 651 1025 705 971 q 520 1079 597 1079 l 281 1079 q 151 1025 205 1079 q 97 894 97 971 l 97 648 q 151 518 97 572 q 281 464 205 464 l 520 464 q 579 474 551 464 q 622 494 608 484 l 636 505 l 636 155 q 608 80 636 102 q 523 58 580 58 l 284 58 q 169 155 169 58 "},"l":{"x_min":118,"x_max":279,"ha":328,"o":"m 118 1061 l 118 119 q 169 26 118 66 q 279 -14 220 -14 l 279 55 q 218 76 249 55 q 187 119 187 98 l 187 1061 l 118 1061 "},"8":{"x_min":97,"x_max":708,"ha":805,"o":"m 638 414 l 638 172 q 605 91 638 125 q 523 57 571 57 l 281 57 q 199 91 233 57 q 166 172 166 125 l 166 414 q 201 501 166 463 q 283 540 235 540 l 521 540 q 603 501 569 540 q 638 414 638 463 m 176 745 l 176 892 q 210 973 176 939 q 291 1008 244 1008 l 513 1008 q 594 973 560 1008 q 629 892 629 939 l 629 745 q 591 661 629 699 q 515 623 553 623 l 289 623 q 209 659 242 623 q 176 745 176 696 m 106 892 l 106 745 q 135 646 106 689 q 213 581 165 602 q 129 516 162 562 q 97 414 97 471 l 97 172 q 151 42 97 96 q 281 -12 205 -12 l 523 -12 q 653 42 599 -12 q 708 172 708 96 l 708 414 q 675 516 708 471 q 591 581 642 562 q 669 646 639 602 q 698 745 698 689 l 698 892 q 644 1023 698 969 q 513 1077 590 1077 l 291 1077 q 160 1023 214 1077 q 106 892 106 969 "},"p":{"x_min":104,"x_max":712.4375,"ha":817,"o":"m 712 170 l 712 658 q 673 753 712 714 q 579 792 634 792 q 444 766 545 792 q 258 716 342 741 l 173 691 l 173 778 l 104 778 l 104 -217 l 173 -217 l 173 26 q 288 -14 222 -14 l 527 -14 q 658 40 604 -14 q 712 170 712 94 m 173 170 l 173 622 q 579 722 505 722 q 623 704 604 722 q 643 658 643 686 l 643 170 q 608 88 643 122 q 527 55 574 55 l 288 55 q 207 88 241 55 q 173 170 173 122 "},"4":{"x_min":27.28125,"x_max":754,"ha":823,"o":"m 428 1063 l 681 1063 l 681 283 l 754 283 l 754 214 l 681 214 l 681 -8 l 612 -8 l 612 214 l 27 214 l 428 1063 m 138 283 l 612 283 l 612 993 l 473 993 l 138 283 "},"‡":{"x_min":14,"x_max":500,"ha":496,"o":"m 14 204 l 221 204 l 221 7 l 290 7 l 290 204 l 500 204 l 500 272 l 290 272 l 290 843 l 500 843 l 500 911 l 290 911 l 290 1105 l 221 1105 l 221 911 l 14 911 l 14 843 l 221 843 l 221 272 l 14 272 l 14 204 "},"R":{"x_min":125,"x_max":810,"ha":893,"o":"m 740 0 l 810 0 l 810 414 q 777 516 810 470 q 692 580 744 561 q 770 646 740 601 q 800 744 800 691 l 800 944 q 751 1062 800 1013 q 633 1111 702 1111 l 125 1111 l 125 0 l 194 0 l 194 546 l 624 546 q 740 414 740 494 l 740 0 m 626 615 l 194 615 l 194 1043 l 633 1043 q 701 1013 673 1043 q 729 944 729 983 l 729 741 q 626 615 729 661 "},"\r":{"x_min":0,"x_max":0,"ha":694},"o":{"x_min":97,"x_max":705.4375,"ha":803,"o":"m 636 170 q 602 88 636 122 q 520 55 569 55 l 281 55 q 199 88 233 55 q 166 170 166 122 l 166 607 q 199 689 166 655 q 281 722 233 722 l 520 722 q 602 689 569 722 q 636 607 636 655 l 636 170 m 705 170 l 705 607 q 651 737 705 683 q 520 792 597 792 l 281 792 q 151 737 205 792 q 97 607 97 683 l 97 170 q 151 40 97 94 q 281 -14 205 -14 l 520 -14 q 651 40 597 -14 q 705 170 705 94 "},"5":{"x_min":82,"x_max":690.34375,"ha":774,"o":"m 504 547 l 112 547 l 112 1061 l 690 1061 l 690 993 l 182 993 l 182 617 l 504 617 q 634 562 580 617 q 689 432 689 508 l 689 159 q 634 36 689 79 q 493 -7 580 -7 l 261 -7 q 129 35 176 -7 q 82 159 82 77 l 82 392 l 151 392 l 151 159 q 178 84 151 106 q 261 62 205 62 l 491 62 q 619 159 619 62 l 619 432 q 586 514 619 480 q 504 547 552 547 "}}}
